<?xml version="1.0" encoding="UTF-8"?>
<svg width="103.85" height="15.745" version="1.1" viewBox="0 0 27.476 4.1656" xmlns="http://www.w3.org/2000/svg">
 <path d="m3.0624 0.10375c-0.050667 0-0.099579 0.009973-0.14625 0.029973-0.043333 0.018667-0.082123 0.045433-0.11679 0.080099-0.033333 0.033333-0.060099 0.073224-0.080099 0.11989-0.019333 0.044-0.028939 0.091445-0.028939 0.14211l-0.00103 0.001034c0 0.050667 0.00997 0.099579 0.029973 0.14625 0.02 0.043333 0.046766 0.082123 0.080099 0.11679 0.034667 0.033333 0.073456 0.060099 0.11679 0.080099 0.046667 0.02 0.095579 0.029973 0.14625 0.029973 0.051333 0 0.098628-0.009973 0.14263-0.029973 0.046667-0.02 0.086557-0.046766 0.11989-0.080099 0.034667-0.034667 0.061433-0.073456 0.080099-0.11679 0.02-0.046667 0.029973-0.095579 0.029973-0.14625 0-0.051333-0.00997-0.099145-0.029973-0.14315-0.01867-0.046667-0.045436-0.086558-0.080103-0.11989-0.033333-0.034667-0.073224-0.061433-0.11989-0.080099-0.044-0.02-0.091295-0.029973-0.14263-0.029973zm3.6277 1.0232c-0.16333 0-0.31454 0.025298-0.45321 0.075965-0.13667 0.051333-0.25502 0.12188-0.35502 0.21188-0.099333 0.088-0.17655 0.19323-0.23255 0.31523-0.056 0.11867-0.084233 0.24773-0.084233 0.38706 0 0.15333 0.028233 0.29295 0.084233 0.41962 0.056 0.124 0.13263 0.23143 0.22996 0.32143 0.099333 0.09 0.21732 0.15907 0.35399 0.20774 0.13667 0.048667 0.28531 0.072864 0.44597 0.072864 0.16267 0 0.31336-0.024198 0.45269-0.072864 0.14067-0.048667 0.26122-0.11679 0.36122-0.20412 0.1-0.09 0.1781-0.19545 0.2341-0.31678 0.058667-0.12467 0.087851-0.26165 0.087851-0.41031s-0.028233-0.2833-0.084233-0.40463c-0.056-0.12467-0.13505-0.231-0.23771-0.31833-0.1-0.09-0.21945-0.15944-0.35812-0.20877-0.13667-0.050667-0.28494-0.075965-0.44494-0.075965zm-5.2788 0.010852c-0.24333 0-0.4359 0.088803-0.57723 0.26614v-0.20826h-0.66095v2.8081h0.66095v-1.1167c0.156 0.16133 0.35098 0.24185 0.58498 0.24185 0.134 0 0.25807-0.025665 0.37207-0.076999 0.11467-0.051333 0.21344-0.12188 0.29611-0.21188 0.084667-0.09 0.15022-0.19486 0.19689-0.3142 0.048667-0.11933 0.072864-0.24876 0.072864-0.38809 0-0.13867-0.024198-0.26831-0.072864-0.38964-0.046-0.122-0.11156-0.22833-0.19689-0.31833-0.085333-0.09-0.18668-0.16054-0.30334-0.21188-0.11467-0.053333-0.23859-0.080099-0.37259-0.080099zm3.405 0c-0.146 0-0.28408 0.025299-0.41342 0.075965-0.12667 0.049333-0.23563 0.11929-0.32763 0.20929-0.093333 0.087333-0.16681 0.19278-0.22014 0.31678-0.053333 0.122-0.080099 0.25751-0.080099 0.40618s0.028233 0.28366 0.084233 0.40566c0.055333 0.11867 0.12939 0.22206 0.22273 0.31006 0.094667 0.084667 0.20305 0.15074 0.32505 0.19741 0.124 0.046667 0.25416 0.069764 0.39016 0.069764 0.14667 0 0.30139-0.035271 0.46406-0.10594v-0.56328c-0.10667 0.085333-0.22224 0.12816-0.34624 0.12816-0.064 0-0.12384-0.011073-0.17984-0.033073s-0.10491-0.052285-0.14625-0.090951c-0.038667-0.042-0.069902-0.089812-0.094569-0.14314-0.022-0.056-0.033073-0.11657-0.033073-0.1819 0-0.068667 0.011073-0.1296 0.033073-0.18294 0.024667-0.056 0.05737-0.10344 0.098703-0.14211 0.041333-0.042 0.088778-0.073752 0.14211-0.095085 0.056-0.022 0.11547-0.032556 0.1788-0.032556 0.11733 0 0.23327 0.03879 0.34727 0.11679v-0.56276c-0.13667-0.068-0.28494-0.10232-0.44494-0.10232zm-2.0831 0.057878v1.8743h0.66198v-1.8743zm3.9569 0.50437c0.058 0 0.11248 0.01144 0.16382 0.034107 0.053333 0.021333 0.099094 0.051251 0.13643 0.089918 0.038667 0.039333 0.068585 0.085678 0.089918 0.13901 0.024667 0.051333 0.036691 0.10618 0.036691 0.16485 0 0.060667-0.012024 0.11772-0.036691 0.17105-0.021333 0.051333-0.051618 0.096577-0.090951 0.13591-0.036667 0.038667-0.08206 0.068951-0.13539 0.090951-0.051333 0.022-0.10582 0.033073-0.16382 0.033073-0.058667 0-0.11462-0.01144-0.16795-0.034107-0.051333-0.021333-0.096577-0.051251-0.13591-0.089918-0.036-0.039333-0.066285-0.084577-0.090951-0.13591-0.021333-0.053333-0.03204-0.11185-0.03204-0.17518h-0.00103c0-0.058667 0.01144-0.11315 0.034107-0.16382 0.024-0.051333 0.053918-0.096577 0.089918-0.13591 0.039333-0.038667 0.084577-0.068951 0.13591-0.090951 0.053333-0.022 0.10928-0.033073 0.16795-0.033073zm-5.4498 0.00775c0.060667 0 0.11662 0.012541 0.16795 0.037207 0.053333 0.021333 0.099311 0.051251 0.13798 0.089918 0.038667 0.039333 0.067851 0.085678 0.087851 0.13901 0.022 0.051333 0.033073 0.10618 0.033073 0.16485 0 0.056-0.012541 0.10953-0.037207 0.1602-0.021333 0.051333-0.051618 0.096577-0.090951 0.13591-0.036667 0.038667-0.080076 0.068951-0.13074 0.090951-0.051333 0.022-0.10618 0.033073-0.16485 0.033073-0.058667 0-0.11513-0.01144-0.16847-0.034107-0.050667-0.024-0.095543-0.053918-0.13488-0.089918-0.038667-0.039333-0.068951-0.084577-0.090951-0.13591-0.022-0.050667-0.033073-0.10567-0.033073-0.16433 0-0.058667 0.011073-0.11315 0.033073-0.16382 0.024-0.054 0.054285-0.10034 0.090951-0.13901 0.039333-0.039333 0.08421-0.069985 0.13488-0.091985 0.051333-0.021333 0.1067-0.03204 0.16537-0.03204z" stop-color="#000000" style="-inkscape-stroke:none;font-variation-settings:normal"/>
 <path d="m24.293 0.63396v0.56173h-0.22014v0.55243h0.22014v1.3219h0.65991v-1.3219h0.37672v-0.55243h-0.37672v-0.56173zm-8.7964 0.493c-0.16333 0-0.31402 0.025298-0.45269 0.075965-0.13667 0.051333-0.25502 0.12188-0.35502 0.21188-0.09933 0.088-0.17706 0.19323-0.23306 0.31523-0.056 0.11867-0.08423 0.24773-0.08423 0.38706 0 0.15333 0.02823 0.29295 0.08423 0.41962 0.056 0.124 0.13263 0.23143 0.22996 0.32143 0.09933 0.09 0.21732 0.15907 0.35399 0.20774 0.13667 0.048667 0.28531 0.072864 0.44597 0.072864 0.16267 0 0.31387-0.024198 0.45321-0.072864 0.14067-0.048667 0.2607-0.11679 0.3607-0.20412 0.1-0.09 0.1781-0.19545 0.2341-0.31678 0.05867-0.12467 0.08785-0.26165 0.08785-0.41031s-0.02772-0.2833-0.08372-0.40463c-0.056-0.12467-0.13556-0.231-0.23823-0.31833-0.1-0.09-0.21894-0.15944-0.3576-0.20877-0.13667-0.050667-0.28546-0.075965-0.44546-0.075965zm4.8985 0c-0.16067 0-0.30579 0.024198-0.43512 0.072864-0.12667 0.046-0.23505 0.11302-0.32505 0.20102-0.09 0.087333-0.15959 0.19425-0.20826 0.32091-0.04867 0.124-0.07287 0.26413-0.07287 0.42013 0 0.15133 0.02567 0.28743 0.077 0.40876 0.05067 0.122 0.12231 0.22723 0.21498 0.31523 0.09533 0.087333 0.2087 0.15546 0.34003 0.20412 0.13133 0.046667 0.27645 0.069764 0.43512 0.069764 0.516 0 0.83858-0.21419 0.96791-0.64286h-0.63976c-0.07267 0.11667-0.18105 0.17518-0.32505 0.17518-0.268 0-0.40205-0.1427-0.40205-0.42737h1.3917v-0.069764c0-0.16333-0.0231-0.30955-0.06976-0.43822-0.046-0.13133-0.11266-0.24213-0.19999-0.3328-0.088-0.089333-0.19528-0.15746-0.32195-0.20412-0.12667-0.048667-0.26885-0.072864-0.42685-0.072864zm6.0638 0c-0.12667 0-0.24209 0.015693-0.34675 0.047026-0.102 0.032-0.1897 0.076877-0.26304 0.13488-0.07333 0.058667-0.12928 0.13068-0.16795 0.21601-0.03867 0.082667-0.0584 0.17646-0.0584 0.28112 0 0.144 0.04041 0.25737 0.12041 0.34003 0.08267 0.08 0.22632 0.14094 0.43098 0.18294 0.06067 0.012 0.10906 0.024174 0.14573 0.036174 0.03867 0.01 0.06785 0.022024 0.08785 0.036691 0.01933 0.012 0.03187 0.026225 0.03721 0.042892 0.0067 0.014667 0.0098 0.034762 0.0098 0.059429 0 0.041333-0.01921 0.075137-0.05788 0.1018-0.03933 0.026667-0.0892 0.039791-0.14986 0.039791-0.166 0-0.3414-0.062988-0.52607-0.18965l-0.24185 0.46768c0.24667 0.144 0.4965 0.21601 0.74983 0.21601 0.13133 0 0.25174-0.01701 0.36174-0.051677 0.10933-0.031333 0.20276-0.076727 0.28009-0.13539 0.078-0.060667 0.13894-0.13473 0.18294-0.22273 0.044-0.087333 0.06615-0.18574 0.06615-0.29508 0-0.14667-0.04488-0.26612-0.13488-0.35812-0.09-0.095333-0.22646-0.16126-0.4098-0.19792l-0.1602-0.036174c-0.03933-0.01-0.06998-0.020557-0.09199-0.032556-0.01933-0.012-0.03297-0.024541-0.04031-0.037207-0.0047-0.014667-0.0067-0.032928-0.0067-0.054261 0-0.042 0.01811-0.074703 0.05478-0.098703 0.03867-0.024667 0.08905-0.037207 0.15038-0.037207 0.11667 0 0.2356 0.031752 0.3576 0.095085l0.22222-0.43099c-0.19467-0.08-0.39537-0.11989-0.60204-0.11989zm-13.337 0.010852c-0.24333 0-0.4359 0.088803-0.57723 0.26614v-0.20826h-0.66095v2.8081h0.66095v-1.1167c0.156 0.16133 0.35098 0.24185 0.58498 0.24185 0.13333 0 0.25741-0.025665 0.37207-0.076999 0.11467-0.051333 0.21344-0.12188 0.29611-0.21188 0.08467-0.09 0.15022-0.19486 0.19689-0.3142 0.04867-0.11933 0.07287-0.24876 0.07287-0.38809 0-0.13867-0.0242-0.26831-0.07287-0.38964-0.046-0.122-0.11156-0.22833-0.19689-0.31833-0.08533-0.09-0.18668-0.16054-0.30334-0.21188-0.11467-0.053333-0.23859-0.080099-0.37259-0.080099zm5.1398 0.018087c-0.12467 0-0.23305 0.019212-0.32505 0.057878-0.09267 0.036667-0.18426 0.11014-0.27492 0.22014v-0.23823h-0.65991v1.8743h0.66095v-1.001c0-0.124 0.02882-0.21926 0.08682-0.28526 0.06133-0.068 0.14794-0.1018 0.25994-0.1018 0.04133 0 0.08064 0.00609 0.11731 0.018087 0.036 0.012667 0.06834 0.033346 0.09767 0.062012 0.034 0.034667 0.05761 0.081011 0.07028 0.13901 0.01467 0.056 0.02171 0.13006 0.02171 0.22273v0.9462h0.66146v-1.1912c0-0.099333-0.01-0.18814-0.02997-0.26614-0.01933-0.078-0.05607-0.14854-0.11007-0.21188-0.06533-0.078-0.14563-0.13747-0.2403-0.1788-0.09267-0.044-0.20457-0.066146-0.3359-0.066146zm4.7889 0c-0.12467 0-0.23305 0.019212-0.32505 0.057878-0.09267 0.036667-0.18389 0.11014-0.27389 0.22014v-0.23823h-0.66198v1.8743h0.66198v-1.001c0-0.124 0.02882-0.21926 0.08682-0.28526 0.06133-0.068 0.14845-0.1018 0.26045-0.1018 0.04133 0 0.07976 0.00609 0.11576 0.018087 0.03667 0.012667 0.06989 0.033346 0.09922 0.062012 0.034 0.034667 0.0571 0.081011 0.06976 0.13901 0.014 0.056 0.02119 0.13006 0.02119 0.22273v0.9462h0.66198v-1.1912c0-0.099333-0.01-0.18814-0.02997-0.26614-0.01933-0.078-0.05607-0.14854-0.11007-0.21188-0.06533-0.078-0.14563-0.13747-0.2403-0.1788-0.09267-0.044-0.20457-0.066146-0.3359-0.066146zm-12.318 0.00723c-0.27467 0-0.48644 0.11799-0.63511 0.35399-0.146-0.23333-0.35814-0.35036-0.63614-0.35036-0.224 0-0.42602 0.086752-0.60669 0.25942v-0.23048h-0.66043v1.8743h0.66095v-0.92502c0-0.099333 0.00755-0.17963 0.022221-0.2403 0.016667-0.064 0.038446-0.1124 0.065113-0.14573 0.029333-0.036667 0.062036-0.060864 0.098703-0.072864 0.036667-0.012667 0.075973-0.01912 0.11731-0.01912 0.048667 0 0.091492 0.00704 0.12816 0.021704 0.036667 0.012667 0.065484 0.037381 0.086817 0.073381 0.024667 0.036667 0.042778 0.08653 0.054778 0.14986 0.012667 0.060667 0.01912 0.13876 0.01912 0.2341v0.92398h0.66095v-0.92398c0-0.30933 0.10596-0.46406 0.3173-0.46406 0.03933 0 0.07555 0.00609 0.10956 0.018087 0.034 0.012667 0.0637 0.035764 0.08837 0.069764 0.02667 0.034 0.04588 0.081445 0.05788 0.14211 0.01533 0.060667 0.02274 0.13876 0.02274 0.2341v0.92398h0.66043v-1.216c0-0.12467-0.01716-0.231-0.05116-0.31833-0.03133-0.088-0.07511-0.15854-0.13178-0.21188-0.05533-0.056-0.12199-0.096257-0.19999-0.12092-0.078-0.026667-0.16108-0.039791-0.24908-0.039791zm9.6796 0.39068c0.09733 0 0.18042 0.028233 0.24908 0.084233 0.068 0.056 0.11339 0.13006 0.13539 0.22273h-0.75603c0.01667-0.098 0.05656-0.17353 0.11989-0.22686 0.066-0.053333 0.14967-0.080099 0.25167-0.080099zm-4.916 0.14625c0.058 0 0.113 0.01144 0.16433 0.034107 0.05333 0.021333 0.09858 0.051251 0.13591 0.089918 0.03867 0.039333 0.06858 0.085678 0.08992 0.13901 0.02467 0.051333 0.03721 0.10618 0.03721 0.16485 0 0.060667-0.01254 0.11772-0.03721 0.17105-0.02133 0.051333-0.05162 0.096577-0.09095 0.13591-0.03667 0.038667-0.08154 0.068951-0.13488 0.090951-0.05133 0.022-0.10633 0.033073-0.16433 0.033073-0.05867 0-0.11462-0.01144-0.16795-0.034107-0.05133-0.021333-0.09658-0.051251-0.13591-0.089918-0.036-0.039333-0.06629-0.084577-0.09095-0.13591-0.022-0.053333-0.03307-0.11185-0.03307-0.17518 0-0.058667 0.01144-0.11315 0.03411-0.16382 0.024-0.051333 0.05392-0.096577 0.08992-0.13591 0.03933-0.038667 0.08458-0.068951 0.13591-0.090951 0.05333-0.022 0.10928-0.033073 0.16795-0.033073zm-2.5456 0.00775c0.06067 0 0.11662 0.012541 0.16795 0.037207 0.05333 0.021333 0.09931 0.051251 0.13798 0.089918 0.03867 0.039333 0.06785 0.085678 0.08785 0.13901 0.022 0.051333 0.03307 0.10618 0.03307 0.16485 0 0.056-0.01254 0.10953-0.03721 0.1602-0.02133 0.051333-0.05162 0.096577-0.09095 0.13591-0.03667 0.038667-0.08008 0.068951-0.13074 0.090951-0.05133 0.022-0.10618 0.033073-0.16485 0.033073-0.05867 0-0.11513-0.01144-0.16847-0.034107-0.05133-0.024-0.09621-0.053918-0.13488-0.089918-0.03867-0.039333-0.06895-0.084577-0.09095-0.13591-0.022-0.050667-0.03307-0.10567-0.03307-0.16433 0-0.058667 0.01107-0.11315 0.03307-0.16382 0.024-0.054 0.05428-0.10034 0.09095-0.13901 0.03867-0.039333 0.08354-0.069985 0.13488-0.091985 0.05133-0.021333 0.1067-0.03204 0.16537-0.03204z" fill="none" stop-color="#000000" stroke="#000" stroke-width=".2" style="font-variation-settings:normal"/>
</svg>
